# xmcd CD database file
#
# Track frame offsets:
#	150
#	29620
#	71580
#	99326
#	133328
#	159487
#	185819
#	211847
#	237715
#
# Disc length: 3532 seconds
#
# Revision: 0
# Processed by: cddbd v1.5.2PL0 Copyright (c) Steve Scherf et al.
# Submitted via: CDex 1.79
#
DISCID=860dca09
DTITLE=Steve Kuhn Trio - At This Time...
DYEAR=2016
DGENRE=Jazz
TTITLE0=My Shining Hour
TTITLE1=Ah Moore
TTITLE2=The Pawnbroker
TTITLE3=All the Rest is the Same
TTITLE4=The Feeling Within
TTITLE5=Carousel
TTITLE6=Lonely Town
TTITLE7=This is New
TTITLE8=I Waited For You
EXTD=YEAR: 2016
EXTT0=
EXTT1=
EXTT2=
EXTT3=
EXTT4=
EXTT5=
EXTT6=
EXTT7=
EXTT8=
PLAYORDER=
